:SAMPLES-PER-SECOND 30
:FRAME-RANGE 1-2091
:FULLY-SPECIFIED
:DEGREES
2026
root  22.3958 39.0844 34.606 174.897 40.5326 -179.48
RightUpLeg  -26.1962 15.2432 -5.6447
RightLeg  44.4481 -11.6623 -12.2645
RightFoot  1.3659 -1.43244 12.8984
RightToes  5.82063e-011 0 -3.6325e-017
Spine  9.42807 -2.02416 -8.64898
Spine1  -1.66595 -2.7918 0.307975
HEad  5.69931 -3.96747 -3.25105
LeftShoulder1  2.02775 -1.85495 -31.8087
LeftArm  44.1213 -9.37886 -51.1543
LeftForeArm  -5.17478 -16.8662 -11.321
LeftHand  0.328849 -1.49956 -5.42521
RightShoulder  11.4741 16.1156 51.1697
RightArm  24.348 5.21164 23.3362
RightForeArm  22.5683 41.387 8.38936
RightHand  0.0308438 -2.4463 1.78182
LeftUpLeg  -2.97323 6.92644 -6.72285
LeftLeg  15.4716 10.0881 -1.67538
LeftFoot  -13.0735 0.15516 5.05909
LeftToes  -6.27584e-011 -2.25241e-010 2.80627e-011
2027
root  22.3694 39.1159 34.0539 175.493 35.433 -178.917
RightUpLeg  -25.9939 16.3496 -4.42544
RightLeg  38.9406 -12.4989 -10.8665
RightFoot  1.39041 -1.42256 12.7876
RightToes  5.82063e-011 0 -3.6325e-017
Spine  9.68214 -2.19653 -8.29858
Spine1  -1.8246 -2.9953 1.02721
HEad  3.63753 -0.937732 -2.83339
LeftShoulder1  2.02569 -1.8322 -31.9315
LeftArm  43.3056 -8.92049 -50.6684
LeftForeArm  -5.05553 -16.7677 -11.3935
LeftHand  0.317154 -1.48482 -5.24042
RightShoulder  10.6349 14.8605 50.6876
RightArm  21.3922 5.23466 22.4839
RightForeArm  20.4278 42.3043 8.83298
RightHand  -0.00487129 -2.62397 0.406298
LeftUpLeg  -1.79557 6.48491 -6.97623
LeftLeg  14.4454 5.80383 -2.89492
LeftFoot  -12.8539 0.16097 6.32747
LeftToes  -6.27584e-011 -2.25241e-010 2.80627e-011
2028
root  22.3543 39.1494 33.4481 175.993 30.0625 -178.477
RightUpLeg  -25.3848 17.2104 -3.23201
RightLeg  32.3576 -11.8255 -8.19045
RightFoot  1.58213 -1.40675 12.4711
RightToes  5.82063e-011 0 -3.6325e-017
Spine  9.81712 -2.44667 -7.95415
Spine1  -1.95832 -3.26431 1.60135
HEad  2.16399 1.29493 -2.48468
LeftShoulder1  2.01979 -1.83088 -31.8301
LeftArm  40.5962 -8.96693 -49.924
LeftForeArm  -3.14096 -15.3308 -12.5979
LeftHand  0.275936 -1.20674 -4.76341
RightShoulder  9.72005 13.4406 50.2259
RightArm  19.7859 4.32021 21.6139
RightForeArm  17.3919 41.2972 8.70395
RightHand  -0.0507227 -2.7115 -1.59823
LeftUpLeg  -0.476065 5.91156 -7.24333
LeftLeg  13.5361 1.281 -3.80943
LeftFoot  -12.8052 0.165314 6.89747
LeftToes  -6.27584e-011 -2.25241e-010 2.80627e-011
2029
root  22.351 39.1614 32.7738 176.26 24.7478 -178.194
RightUpLeg  -24.0797 17.216 -1.77191
RightLeg  25.0435 -10.5597 -5.54685
RightFoot  1.75821 -1.49238 13.0512
RightToes  5.82063e-011 0 -3.6325e-017
Spine  9.69373 -2.61286 -7.72228
Spine1  -1.70213 -3.47216 2.14005
HEad  0.977592 2.60944 -2.08887
LeftShoulder1  2.00415 -1.80772 -31.7001
LeftArm  37.393 -9.34453 -48.8804
LeftForeArm  -1.18415 -13.5492 -13.936
LeftHand  0.230687 -0.776047 -4.28968
RightShoulder  8.74495 11.8609 49.847
RightArm  20.379 3.02076 20.4344
RightForeArm  14.2572 38.7941 8.11944
RightHand  -0.0776843 -3.01455 -3.08707
LeftUpLeg  1.03954 5.6142 -7.33226
LeftLeg  12.9817 -3.42308 -4.72258
LeftFoot  -13.1464 0.188844 6.95499
LeftToes  -6.27584e-011 -2.25241e-010 2.80627e-011
2030
root  22.3417 39.1399 32.0173 176.436 19.4234 -177.93
RightUpLeg  -22.0564 14.2119 0.5271
RightLeg  17.3959 -7.68989 -2.89377
RightFoot  1.98982 -1.62933 13.9952
RightToes  5.82063e-011 0 -3.6325e-017
Spine  9.48173 -2.81345 -7.47878
Spine1  -1.47865 -3.74447 2.75483
HEad  0.285215 2.83781 -1.79044
LeftShoulder1  1.97314 -1.73587 -31.6246
LeftArm  32.9655 -9.73097 -47.4936
LeftForeArm  1.5859 -11.2356 -15.3529
LeftHand  0.204344 -0.551772 -3.96067
RightShoulder  7.80908 10.2986 49.5615
RightArm  23.3643 1.3499 19.1381
RightForeArm  11.0991 34.7761 7.15611
RightHand  -0.0774212 -2.915 -2.97103
LeftUpLeg  2.65026 5.45197 -7.27787
LeftLeg  12.7729 -8.17582 -5.54195
LeftFoot  -13.5566 0.223616 7.33381
LeftToes  -6.27584e-011 -2.25241e-010 2.80627e-011
2031
root  22.3221 39.0618 31.1597 176.691 14.3069 -177.904
RightUpLeg  -19.7831 8.20734 3.49738
RightLeg  10.0892 -2.53401 -1.05086
RightFoot  2.07079 -1.97564 16.8127
RightToes  5.82063e-011 0 -3.6325e-017
Spine  8.68752 -2.93885 -7.39697
Spine1  -0.985107 -3.92628 3.29831
HEad  -0.0532906 2.20265 -1.6026
LeftShoulder1  1.93317 -1.64297 -31.5261
LeftArm  29.2937 -9.99467 -45.8527
LeftForeArm  2.97499 -9.37726 -16.3073
LeftHand  0.179104 -0.177634 -3.74437
RightShoulder  6.85103 8.69731 49.1966
RightArm  29.4126 -0.521156 18.1022
RightForeArm  7.38786 29.671 6.05356
RightHand  -0.0488414 -2.4567 -1.4345
LeftUpLeg  4.10563 5.09539 -7.47428
LeftLeg  12.8925 -12.6079 -6.13068
LeftFoot  -13.7901 0.258126 8.17682
LeftToes  -6.27584e-011 -2.25241e-010 2.80627e-011
2032
root  22.296 38.9442 30.2206 176.905 9.88446 -178.086
RightUpLeg  -17.8286 5.66582 4.98377
RightLeg  4.4447 -1.05607 0.314917
RightFoot  2.18925 -2.18407 18.3925
RightToes  5.82063e-011 0 -3.6325e-017
Spine  7.77753 -2.81837 -7.4081
Spine1  -0.569379 -3.8566 3.74156
HEad  -0.175369 0.991836 -1.38903
LeftShoulder1  1.86689 -1.48317 -31.3982
LeftArm  26.5267 -9.70532 -43.883
LeftForeArm  3.8313 -8.41553 -16.6787
LeftHand  0.170406 0.00384819 -3.70546
RightShoulder  6.0996 7.40629 48.9904
RightArm  40.1995 -2.64363 17.2494
RightForeArm  0.52392 24.1251 5.13382
RightHand  0.0017758 -1.89713 0.409694
LeftUpLeg  5.71195 4.83488 -7.73853
LeftLeg  12.9606 -16.3204 -6.60895
LeftFoot  -14.0987 0.304554 9.10429
LeftToes  -6.27584e-011 -2.25241e-010 2.80627e-011
2033
root  22.2259 38.7946 29.1975 177.03 5.65532 -178.224
RightUpLeg  -16.263 5.68798 5.76203
RightLeg  1.65092 -3.14816 1.12825
RightFoot  2.26228 -2.10718 17.6684
RightToes  5.82063e-011 0 -3.6325e-017
Spine  7.07891 -2.75529 -7.03867
Spine1  -0.355576 -3.80031 3.89685
HEad  -0.176199 -0.501087 -1.34357
LeftShoulder1  1.79714 -1.30508 -31.3316
LeftArm  25.5491 -8.97633 -41.4984
LeftForeArm  3.06596 -8.58285 -16.5986
LeftHand  0.172198 -0.0331497 -3.71402
RightShoulder  5.57021 6.43361 49.1234
RightArm  43.9623 -4.47644 16.1097
RightForeArm  2.92203 17.4032 9.79772
RightHand  0.0404601 -1.35469 1.39398
LeftUpLeg  7.42478 4.70905 -7.83743
LeftLeg  13.4477 -19.952 -7.09921
LeftFoot  -14.6246 0.374137 9.95201
LeftToes  -6.27584e-011 -2.25241e-010 2.80627e-011
2034
root  22.0706 38.588 28.0681 177.331 1.7881 -178.32
RightUpLeg  -15.0273 5.51224 6.43347
RightLeg  1.43351 -4.85729 1.69186
RightFoot  1.86592 -2.14433 18.4856
RightToes  5.82063e-011 0 -3.6325e-017
Spine  6.58804 -2.70567 -5.72219
Spine1  -0.909902 -3.55923 3.27066
HEad  0.179166 -2.29487 -1.80849
LeftShoulder1  1.73849 -1.15092 -31.3072
LeftArm  25.2315 -7.53015 -38.8945
LeftForeArm  2.031 -9.30312 -16.247
LeftHand  0.188766 -0.081046 -4.02948
RightShoulder  5.03469 5.42328 49.4327
RightArm  37.6671 -6.32714 14.7348
RightForeArm  15.8954 8.3578 15.9963
RightHand  0.0921313 -0.841706 2.49267
LeftUpLeg  8.91086 4.55026 -7.98819
LeftLeg  14.3993 -22.8632 -7.53638
LeftFoot  -15.3155 0.472793 10.9295
LeftToes  -6.27584e-011 -2.25241e-010 2.80627e-011
2035
root  21.8493 38.6132 26.9911 177.768 -2.08859 -177.496
RightUpLeg  -15.2035 5.70626 8.13541
RightLeg  3.56532 -1.84932 1.56213
RightFoot  5.56707 -0.745145 5.26621
RightToes  5.82063e-011 0 -3.6325e-017
Spine  5.82854 -2.69728 -2.89283
Spine1  -0.570035 -3.48001 3.2336
HEad  0.140038 -4.10711 -3.13982
LeftShoulder1  1.6859 -0.968797 -31.6516
LeftArm  25.3494 -6.1795 -36.2804
LeftForeArm  0.370482 -10.2099 -15.8164
LeftHand  0.187884 0.00634248 -4.08732
RightShoulder  4.09105 3.7307 49.5843
RightArm  40.1272 -7.95988 13.4509
RightForeArm  18.381 3.35169 18.2713
RightHand  0.147777 -0.578015 3.6713
LeftUpLeg  11.1258 3.9695 -7.0857
LeftLeg  12.9887 -25.4757 -6.8944
LeftFoot  -14.9445 0.441434 11.1314
LeftToes  -6.27584e-011 -2.25241e-010 2.80627e-011
